<?xml version="1.0" standalone="no"?>
<!DOCTYPE svg PUBLIC "-//W3C//DTD SVG 20010904//EN"
 "http://www.w3.org/TR/2001/REC-SVG-20010904/DTD/svg10.dtd">
<svg version="1.0" xmlns="http://www.w3.org/2000/svg"
 width="298.000000pt" height="172.000000pt" viewBox="0 0 298.000000 172.000000"
 preserveAspectRatio="xMidYMid meet">
<metadata>
Created by potrace 1.16, written by Peter Selinger 2001-2019
</metadata>
<g transform="translate(0.000000,172.000000) scale(0.100000,-0.100000)"
fill="currentColor" stroke="none">
<path d="M1026 1341 c-60 -13 -80 -44 -100 -152 -60 -330 -68 -470 -35 -584
15 -55 100 -137 165 -159 69 -24 183 -32 239 -16 63 18 128 77 153 142 18 47
59 263 77 403 3 28 8 64 10 80 28 175 37 220 50 245 8 16 15 31 15 35 0 3 -32
5 -71 5 -69 0 -72 -1 -108 -37 -42 -43 -52 -79 -91 -338 -27 -184 -48 -263
-71 -275 -10 -6 -34 -10 -53 -10 -28 0 -40 7 -61 35 -15 19 -24 38 -21 43 3 6
10 43 16 83 5 41 24 161 41 267 31 190 31 194 13 212 -22 23 -109 33 -168 21z"/>
<path d="M1715 1344 c-89 -22 -102 -56 -145 -379 -17 -128 -40 -288 -59 -406
-11 -67 -18 -126 -15 -131 8 -12 200 -10 228 4 32 14 63 77 72 146 4 29 9 54
13 56 3 2 56 7 117 10 106 6 213 29 265 56 77 41 127 94 174 185 29 59 29 212
-2 275 -36 75 -95 121 -203 160 -58 21 -85 24 -245 26 -99 2 -189 0 -200 -2z
m305 -226 c17 -53 20 -54 87 -63 54 -7 73 -28 36 -42 -10 -4 -32 -18 -50 -32
-31 -25 -32 -27 -26 -83 7 -67 2 -70 -65 -38 -51 25 -54 25 -103 -1 -60 -30
-71 -22 -54 41 16 60 13 73 -21 95 -17 11 -24 24 -22 38 3 19 10 22 56 25 49
3 54 5 79 45 29 46 52 69 63 62 3 -2 13 -23 20 -47z"/>
<path d="M2358 1274 c-4 -3 3 -20 15 -38 12 -17 22 -32 22 -33 0 -1 32 -7 70
-13 141 -22 262 -87 301 -162 21 -40 38 -23 28 28 -9 47 -79 120 -146 152 -82
38 -275 82 -290 66z"/>
<path d="M800 1128 c-195 -56 -331 -122 -413 -204 -67 -66 -81 -136 -41 -201
23 -36 41 -28 47 22 4 25 18 63 32 85 52 82 200 172 363 219 64 20 72 25 72
46 0 14 0 28 1 33 0 11 -22 11 -61 0z"/>
<path d="M2444 1095 c-4 -8 -2 -32 3 -52 9 -37 9 -38 81 -50 134 -22 188 -44
197 -80 8 -31 -5 -47 -78 -94 -62 -40 -149 -73 -251 -94 -45 -9 -79 -25 -112
-50 -82 -62 -76 -65 73 -36 117 24 166 40 252 83 115 59 185 152 167 224 -15
59 -104 119 -211 142 -100 22 -115 22 -121 7z"/>
<path d="M734 951 c-156 -61 -284 -153 -323 -234 -42 -86 -18 -145 77 -196 36
-19 47 -2 17 29 -81 85 27 204 263 290 49 18 62 27 62 44 0 11 3 38 6 59 8 46
-1 47 -102 8z"/>
<path d="M2527 911 c-89 -6 -89 -6 -102 -41 -7 -19 -19 -49 -26 -67 -7 -18
-11 -34 -8 -37 7 -7 136 32 184 56 55 28 116 78 109 89 -3 5 -20 8 -37 7 -18
-1 -72 -4 -120 -7z"/>
<path d="M715 715 c-115 -34 -178 -58 -182 -72 -9 -27 157 -76 245 -71 44 2
57 7 55 18 -4 36 -26 136 -32 142 -3 3 -42 -4 -86 -17z"/>
<path d="M516 571 c-8 -12 50 -60 99 -82 22 -10 67 -22 100 -28 68 -11 211
-18 219 -10 3 3 -9 19 -27 36 -30 29 -38 31 -127 37 -92 5 -192 26 -230 46
-23 12 -27 12 -34 1z"/>
<path d="M1460 299 c-41 -16 -70 -50 -70 -81 0 -18 -5 -28 -15 -28 -10 0 -15
10 -15 34 0 26 -7 40 -27 56 -23 18 -38 20 -107 18 -81 -3 -81 -3 -84 -73 -3
-80 -12 -95 -57 -95 -45 0 -54 15 -57 95 -3 70 -3 70 -38 70 -35 0 -35 0 -38
-65 -5 -93 11 -138 53 -156 53 -22 126 -18 166 9 35 24 46 49 48 110 1 38 1
38 39 35 29 -2 38 -7 40 -25 3 -18 -3 -24 -30 -31 -28 -7 -33 -13 -33 -38 0
-28 2 -29 40 -26 32 2 47 11 72 40 33 37 33 37 33 6 0 -67 102 -118 160 -81
17 10 22 9 29 -1 5 -8 19 -12 32 -10 22 3 24 8 27 71 2 48 7 67 16 67 8 0 16
-6 19 -13 3 -7 30 -19 61 -27 31 -7 56 -19 56 -26 0 -20 -22 -22 -69 -6 -41
14 -45 14 -58 -4 -18 -25 -13 -36 28 -50 50 -18 100 -16 134 4 29 18 31 18 70
1 108 -49 220 10 172 90 -11 19 -29 29 -65 37 -58 13 -75 22 -67 35 10 15 59
10 84 -8 23 -15 25 -15 37 2 22 30 16 45 -23 61 -74 31 -163 -7 -163 -70 0
-36 16 -49 77 -61 40 -8 59 -17 61 -28 4 -21 -43 -23 -82 -5 -22 9 -29 8 -46
-7 -20 -18 -20 -17 -20 12 0 38 -27 62 -76 70 -43 6 -67 20 -58 34 8 14 46 11
79 -7 27 -14 30 -14 43 3 21 29 10 46 -40 62 -72 22 -123 4 -149 -52 -10 -23
-19 -35 -19 -26 0 23 -52 68 -91 79 -40 12 -46 12 -79 -1z m88 -86 c16 -22 15
-58 -2 -72 -25 -21 -79 -9 -95 21 -15 25 -14 29 9 53 27 29 64 28 88 -2z"/>
</g>
</svg>
